<?xml version="1.0" encoding="utf-8"?>
<!-- Generator: Adobe Illustrator 20.0.0, SVG Export Plug-In . SVG Version: 6.00 Build 0)  -->
<!DOCTYPE svg PUBLIC "-//W3C//DTD SVG 1.1//EN" "http://www.w3.org/Graphics/SVG/1.1/DTD/svg11.dtd">
<svg version="1.1" id="Layer_1" xmlns="http://www.w3.org/2000/svg" xmlns:xlink="http://www.w3.org/1999/xlink" x="0px" y="0px"
	 viewBox="0 0 76.2 76.2" style="enable-background:new 0 0 76.2 76.2;" xml:space="preserve">
<g>
	<path d="M58.1,40.7c0.1,11.4,10,15.1,10.1,15.2c-0.1,0.3-1.6,5.4-5.2,10.7c-3.1,4.6-6.4,9.1-11.5,9.2c-5,0.1-6.6-3-12.4-3
		c-5.7,0-7.5,2.9-12.3,3.1c-4.9,0.2-8.7-4.9-11.8-9.5C8.5,57.1,3.6,40,10.2,28.6c3.3-5.7,9.2-9.3,15.5-9.4c4.8-0.1,9.4,3.3,12.4,3.3
		c3,0,8.5-4,14.4-3.4c2.4,0.1,9.3,1,13.7,7.4C65.9,26.6,58,31.2,58.1,40.7 M48.7,12.8c2.6-3.2,4.4-7.6,3.9-12
		C48.8,1,44.2,3.4,41.5,6.5c-2.4,2.8-4.6,7.3-4,11.6C41.7,18.5,46,16,48.7,12.8"/>
</g>
</svg>
