<?xml version="1.0" encoding="utf-8"?>
<!-- Generator: Adobe Illustrator 21.0.2, SVG Export Plug-In . SVG Version: 6.00 Build 0)  -->
<svg version="1.1" id="Calque_1" xmlns="http://www.w3.org/2000/svg" xmlns:xlink="http://www.w3.org/1999/xlink" x="0px" y="0px"
	 viewBox="0 0 3412.8 3272" style="enable-background:new 0 0 3412.8 3272;" xml:space="preserve">
<style type="text/css">
	.st0{fill:#FFC24A;}
	.st1{fill:#FFA712;}
	.st2{filter:url(#b);}
	.st3{fill:#F4BD62;}
	.st4{fill:#FFA50E;}
	.st5{filter:url(#d);}
	.st6{fill:#F6820C;}
	.st7{fill:#FDE068;}
	.st8{fill:#FCCA3F;}
	.st9{fill:#EEAB37;}
	.st10{fill:#1D1D1E;}
</style>
<filter  filterUnits="objectBoundingBox" height="200%" id="d" width="200%" x="-50%" y="-50%">
	<feGaussianBlur  in="SourceAlpha" result="shadowBlurInner1" stdDeviation="3.5"></feGaussianBlur>
	<feOffset  dx="1" dy="-9" in="shadowBlurInner1" result="shadowOffsetInner1"></feOffset>
	<feComposite  in="shadowOffsetInner1" in2="SourceAlpha" k2="-1" k3="1" operator="arithmetic" result="shadowInnerInner1">
		</feComposite>
	<feColorMatrix  in="shadowInnerInner1" values="0 0 0 0 0 0 0 0 0 0 0 0 0 0 0 0 0 0 0.09 0"></feColorMatrix>
</filter>
<filter  filterUnits="objectBoundingBox" height="200%" id="b" width="200%" x="-50%" y="-50%">
	<feGaussianBlur  in="SourceAlpha" result="shadowBlurInner1" stdDeviation="17.5"></feGaussianBlur>
	<feOffset  in="shadowBlurInner1" result="shadowOffsetInner1"></feOffset>
	<feComposite  in="shadowOffsetInner1" in2="SourceAlpha" k2="-1" k3="1" operator="arithmetic" result="shadowInnerInner1">
		</feComposite>
	<feColorMatrix  in="shadowInnerInner1" values="0 0 0 0 0 0 0 0 0 0 0 0 0 0 0 0 0 0 0.06 0"></feColorMatrix>
</filter>
<path class="st0" d="M759.4,2015.5l15.1-21.2l715-1356.7l1.5-14.4l-315.2-592c-26.4-49.6-100.8-37.1-109.4,18.5L759.4,2015.5z"/>
<g>
	<path id="a" class="st1" d="M768.3,1999.4l11.4-22.3l707.5-1342.5L1172.8,40.2c-26.1-49.1-92.5-36.6-101.1,18.4L768.3,1999.4z"/>
</g>
<g class="st2">
	<path id="a_2_" d="M768.3,1999.4l11.4-22.3l707.5-1342.5L1172.8,40.2c-26.1-49.1-92.5-36.6-101.1,18.4L768.3,1999.4z"/>
</g>
<path class="st3" d="M1720.7,1071.1l234.7-240.3l-234.7-448.1c-22.3-42.4-84.5-42.5-106.5,0l-125.4,239.2v20.4L1720.7,1071.1
	L1720.7,1071.1z"/>
<g>
	<path id="c" class="st4" d="M1716.5,1061.1l228.2-233.7L1716.5,393c-21.7-41.2-74.3-45.6-95.7-4.2l-126.1,242.9l-3.8,12.4
		L1716.5,1061.1z"/>
</g>
<g class="st5">
	<path id="c_2_" d="M1716.5,1061.1l228.2-233.7L1716.5,393c-21.7-41.2-74.3-45.6-95.7-4.2l-126.1,242.9l-3.8,12.4L1716.5,1061.1z"/>
</g>
<path class="st6" d="M759.4,2015.5l6.9-6.9l24.9-10.1L1706,1087l11.6-31.6l-228.2-434.9L759.4,2015.5z"/>
<path class="st7" d="M1750,2475.2l828-461.8L2341.6,557.2c-7.4-45.6-63.3-63.6-95.9-30.9L759.4,2015.5l823.3,459.7
	C1634.6,2504.2,1698,2504.2,1750,2475.2"/>
<path class="st8" d="M2570.6,2009.5L2336,564.4c-7.3-45.2-53.8-63.9-86.2-31.5L768.5,2012.7l814.2,455.1
	c51.6,28.8,114.5,28.8,166.2,0L2570.6,2009.5L2570.6,2009.5z"/>
<path class="st9" d="M1750,2461.6c-52,29-115.4,29-167.4,0l-816.6-453l-6.6,7l823.2,459.7c52,29,115.4,29.1,167.4,0l828-461.8
	l-2-12.5L1750,2461.6L1750,2461.6z"/>
<path class="st10" d="M1568.2,2662.9c40.8,0,81.6,0,122.5,0c0,72.2,0,144.4,0,216.6c20.1-26.7,46.5-49.5,78.6-60.1
	c64.8-21.4,140.3-2.3,188.3,46.1c27.6,27.5,46.1,63.3,55.1,101.1c8.4,35.4,9.3,72.3,5,108.3c-4.9,38.1-18.3,75.6-41.4,106.5
	c-19.2,26-45.3,46.9-74.9,59.9c-38.3,16.7-82.2,20.5-122.8,10.4c-34.9-8.4-65-30.6-87.8-57.8c0,18.4,0,36.8,0,55.2
	c-40.8,0-81.6,0-122.4,0C1568.2,3053.6,1568.2,2858.2,1568.2,2662.9 M1778.6,2915.6c-28.1,3.9-53.7,20.9-69.1,44.6
	c-20.2,30.5-24.6,69.5-17.5,104.8c6.6,32.8,27.3,63.5,57.9,78.2c31.3,15.4,70.5,12.5,99.2-7.4c26.3-17.5,42.4-47.4,46.9-78.2
	c5.9-39.1-2.4-82.5-30.5-111.7C1843.7,2922.5,1810.3,2911,1778.6,2915.6z"/>
<path class="st10" d="M663.7,2665.2c43,0,86,0,129.1,0c0,36.4,0,72.8,0,109.2c-43,0-86,0-129.1,0
	C663.6,2738,663.7,2701.6,663.7,2665.2z"/>
<path class="st10" d="M190.5,2666.6c142.7,0,285.4,0,428.1,0c0,37.5,0,75,0,112.5c-101.4,0-202.8,0-304.2,0c0,39.7,0,79.4,0,119.1
	c89.4,0,178.8,0,268.1,0c0,37.7,0.1,75.3,0,113c-89.4,0-178.7,0-268.1,0c0,79.3,0,158.5,0,237.7c-41.3,0-82.6,0-123.8,0
	C190.5,3054.9,190.5,2860.7,190.5,2666.6z"/>
<path class="st10" d="M1018.5,2829.4c23.4-15.2,51.9-19.9,79.4-18.9c0,42.7,0,85.4,0,128.1c-29.9-0.5-61.3,4.7-85.9,22.8
	c-26.1,18.5-41,49.2-46.9,80.1c-5.8,27.2-4.1,55.1-4.3,82.7c0,41.6,0,83.2,0,124.9c-40.8,0-81.6,0-122.4,0c0-143.5,0-286.9,0-430.4
	c40.8,0,81.6,0,122.4,0c0,28.4,0,56.8,0,85.1C973.2,2874.6,991.3,2846.5,1018.5,2829.4z"/>
<path class="st10" d="M1254.7,2821.2c34.7-11.4,72.1-13,108.1-7.4c34.6,5.5,68,19.9,94.5,43c28.1,24.3,48.1,57,59.8,92.1
	c13.8,40.9,17.3,84.9,13.2,127.7c-99.7,0-199.4,0-299,0c5.7,26.1,19.5,51.6,42.3,66.5c27.1,18,61.7,20,92.9,14.3
	c28.4-5.3,53-22.1,73.9-41.4c23.5,20.6,46.8,41.4,70.2,62.1c-22.9,28.8-53.2,51.7-87.6,64.9c-43.8,16.8-92.3,19.4-138.2,10.9
	c-55.1-10.3-106.7-41.9-137.9-88.9c-25.3-37.5-37.8-83.2-37.1-128.4c-0.8-40,8.6-80.3,27.5-115.6
	C1161.8,2874.5,1204.4,2837.4,1254.7,2821.2 M1264.2,2930.6c-19.6,17.8-29.9,43.5-34.6,69.1c61,0.1,122.1,0.1,183.2,0
	c-3.5-23.9-11.8-48-29-65.6C1353.3,2901.6,1296.6,2900.6,1264.2,2930.6z"/>
<path class="st10" d="M2975.1,2829.1c39.1-18,83.5-21.9,125.8-15.7c31,4.6,61.2,16.2,86.5,35c25.2,18.7,45.1,43.9,58.7,72.1
	c16.6,33.6,24.1,71,26.3,108.2v27.8c-0.5,6.7-1,13.4-1.5,20.1c-99.7,0-199.4,0-299.1,0c5.2,23.1,16.1,45.7,34.8,60.9
	c26.6,22.3,63.8,26,96.9,20.6c29.7-4.7,55.8-21.8,77.3-42.1c23.5,20.7,46.8,41.5,70.4,62.2c-19.8,24.5-44.6,45-73.1,58.5
	c-41.8,20.2-89.7,25.3-135.4,20c-55.1-6.3-108.6-32.9-143.7-76.3c-25.7-31.2-41.3-70-46.5-109.9c-5.4-41.9-1.3-85.3,14.2-124.8
	C2886,2894.9,2925.2,2851.3,2975.1,2829.1 M3011.2,2925.4c-23.6,17.6-36,46.2-41,74.4c61,0,122.1,0,183.2,0
	c-3.6-24.3-12.2-48.9-29.9-66.6C3094.7,2903.6,3044,2901.1,3011.2,2925.4z"/>
<path class="st10" d="M2609.6,2817.3c39.6-8.9,81.1-5.4,119.9,5.1c31.1,8.5,60.8,21.8,87.6,39.6c-15.6,28.3-31.3,56.6-46.9,84.9
	c-29.3-17-60.6-31.7-94.1-38.1c-16.6-2.8-34.7-4-50.4,3.3c-9.4,4.2-17,13.6-16.4,24.2c-0.6,7.7,3.8,14.7,9.6,19.4
	c9.4,7.8,20.9,12.5,32.2,17c40.3,15.5,83.3,25.3,120.2,48.7c20.5,12.7,38.4,30.7,47.6,53.3c9,21.5,9,45.6,6,68.3
	c-3.9,29.4-18.2,57.8-41.2,76.9c-25.2,21.2-57.7,31.6-90.1,35.4c-76.9,8.8-156.2-15.5-216.7-63.3c17.5-26.9,35-53.8,52.4-80.8
	c25,18,52.3,33,81.7,42.4c22.2,7.3,45.9,10.9,69.3,8.3c9.5-1.4,19.5-4,26.9-10.6c10.6-9.1,12.4-27.4,2.4-37.7
	c-8.8-9.3-21.1-14-32.9-18.4c-34.9-12.3-71.6-19.3-104.9-35.8c-22.8-10.9-44.3-26.5-57.5-48.5c-12-19.4-16.3-42.6-15.6-65.1
	c0.3-28.6,9.5-57.5,27.7-79.8C2547.2,2840.4,2577.8,2824.4,2609.6,2817.3z"/>
<path class="st10" d="M2078.1,2848.5c37.4-17,77.4-28.5,118.3-32.3c42.9-3.9,87.1-4.2,128.7,8.3c30.1,8.9,58.6,25.9,77.5,51.3
	c20.1,26.6,29.8,59.7,33,92.5c2.1,19,1.2,38.1,1.4,57.1c0,74.5,0,149.1,0,223.6c-39.3,0-78.7-0.1-118,0c-0.3-15.3-0.1-30.5-0.1-45.8
	c-22.9,25-53.4,43.1-86.7,49.7c-37.8,7.4-78.1,5.7-113.9-9.3c-26.5-11.1-49.8-30.9-63-56.7c-15.4-29.9-17.1-65.2-10.5-97.7
	c6.2-30,24.8-57,50.6-73.5c35.8-23,79.5-29.7,121.3-29.2c34.9-0.6,69.6,5.9,102.6,17.1c0.8-17-1.3-34.8-10.3-49.6
	c-8.5-14.5-23.2-24.5-39.1-29.4c-22.6-7.3-46.8-6.6-70.3-4.8c-31.3,2.5-61.6,11.3-90.9,22.2
	C2098.4,2910.9,2088.3,2879.7,2078.1,2848.5 M2179.4,3077.2c-24.2,18-27.1,59-4,79.1c13.4,11.8,31.7,15.8,49.1,16.2
	c20,0.1,40.4-3.5,58.2-13.1c15.6-8.4,28.8-22,34.7-38.9c5.4-14.4,4.1-30,3.8-45c-28-12.1-58.8-17.2-89.2-15.3
	C2213.5,3061.5,2194.3,3065.6,2179.4,3077.2z"/>
<path class="st10" d="M667,2820.9c40.8,0,81.6,0,122.4,0c0,142.7,0,285.4,0,428.1c-40.8-0.1-81.6,0.1-122.4-0.1
	C667,3106.2,666.9,2963.5,667,2820.9z"/>
</svg>
