<?xml version="1.0" encoding="utf-8"?>
<!-- Generator: Adobe Illustrator 20.0.0, SVG Export Plug-In . SVG Version: 6.00 Build 0)  -->
<svg version="1.1" xmlns="http://www.w3.org/2000/svg" xmlns:xlink="http://www.w3.org/1999/xlink" x="0px" y="0px"
	 viewBox="0 0 447.2 77.6" style="enable-background:new 0 0 447.2 77.6;" xml:space="preserve">
<style type="text/css">
	.st0{fill:#84C241;}
	.st1{fill:#D0D1D3;}
	.st2{fill:#26A3DC;}
	.st3{fill:#F89E2C;}
	.st4{fill:#EBE204;}
	.st5{fill:#D22773;}
</style>
<g id="haproxy">
	<path d="M233.5,51.4c1.1-0.7,1.4-1,1.8-1.2c8-4.5,9.8-14.5,7.4-22.7c-2.3-7.9-8.3-11.8-17.8-11.9c-10.9-0.1-21.7,0.1-32.6-0.1
		c-3,0-4,1-4,4c0.1,14.4,0.1,28.9,0,43.3c0,3.1,1,3.9,4,3.9c5.2-0.1,5.2,0.1,5.3-5.1c0-1.9,0.1-3.8,0-5.7c-0.2-2.9,1.2-3.6,3.7-3.5
		c3.3,0.1,6.8,0.5,10-0.1c8.6-1.4,15,1.7,19.5,8.8c4.1,6.5,10,5.8,17.3,4.8C242.9,60.8,238.4,56.2,233.5,51.4z M225.4,44.3h-11.9
		c-4.2,0-8.3-0.1-12.5,0c-2.2,0-3.6-0.3-3.5-3c0.2-4.6,0.1-9.2,0-13.8c0-2.1,0.9-3,3-2.9c8.5,0.1,17.1-0.2,25.6,0.2
		c6,0.3,8.7,3.9,8.5,10.1C234.5,41,231.5,44,225.4,44.3z"/>
	<path d="M294.9,16c-6.8-0.9-13.8-1-20.6,0c-13.1,1.9-21.2,12.2-20.6,25.7c0.6,13.6,10,23.9,22.8,24.9c2.7,0.2,5.4,0,8.1,0
		c0,0,0,0,0,0.1c1.7,0,3.4,0,5,0c15.3-0.1,25.6-10,26.3-25.3C316.5,28.1,308.1,17.8,294.9,16z M295,57c-3.5,1-7.1,0.7-10.6,0.8
		c-3.3-0.1-6.7,0.2-10-0.7c-7.5-2.2-12.4-9.2-11.7-17.2c0.7-8.1,5.8-13.9,13.6-14.9c5.6-0.7,11.3-0.7,16.9,0c7.9,1,13,6.8,13.4,14.9
		C307.1,48.5,302.7,54.8,295,57z"/>
	<path d="M164.1,15.6c-10.7-0.3-21.3,0.1-32-0.1c-3.2-0.1-4.5,0.8-4.4,4.2c0.2,7.1,0.1,14.2,0.1,21.4c0,6.7,0,13.4,0,20.1
		c0,5.7,0.3,5.8,6.1,5.5c2.3-0.1,2.9-1,2.9-3c-0.1-2.5,0.1-5,0-7.5c-0.2-2.8,1-3.7,3.6-3.6c5.7,0.1,11.3,0.1,17,0
		c4,0,7.9,0.2,11.9-0.7c5.2-1.3,9.1-4.2,11.4-9C186.8,29.4,178.9,16,164.1,15.6z M163.2,43.7c-0.2,0-0.4,0-0.6,0
		c-3.5,0-7.1,0-10.6,0c-4,0-7.9-0.1-11.9,0c-2.3,0.1-3.6-0.8-3.3-3.2c0-0.2,0-0.4,0-0.6c0.5-4.9-1-9.9,0.8-14.7
		c4.5-1.2,9.1-0.4,13.7-0.5c4.1-0.1,8.3-0.2,12.5,0.1c6.6,0.3,9.8,3.7,9.7,9.7C173.2,40.2,169.8,43.4,163.2,43.7z"/>
	<path d="M0.1,41.4C0,34.3,0,27.1,0.1,20c0-4.4,0.2-4.5,4.6-4.5c4.3,0,4.3,0,4.4,4.7c0.1,4.4,0.1,8.8,0,13.2C9,36,10,36.7,12.4,36.7
		c8.4-0.1,16.8-0.1,25.1,0c2.9,0.1,3.5-1.3,3.4-3.8c-0.1-4.6,0.2-9.2-0.1-13.8c-0.2-4.2,2.6-3.3,5-3.5c2.8-0.2,4.2,0.5,4.2,3.7
		c-0.1,14.7-0.2,29.3,0,44c0,3.5-1.7,3.6-4.3,3.5c-2.5-0.1-5.1,0.6-4.9-3.6c0.3-5,0-10.1,0.1-15.1c0.1-2.5-0.9-3.4-3.3-3.3
		c-8.4,0.1-16.8,0.1-25.1,0c-2.9-0.1-3.5,1.2-3.5,3.8c0.1,5-0.1,10.1,0.1,15.1c0.1,3.8-2.4,3.1-4.7,3.2C2.1,66.8-0.1,67,0,63.4
		C0.2,56.1,0.1,48.7,0.1,41.4z"/>
	<path d="M121.6,66.1c-7.2,2.1-11.3-0.5-14.5-7c-4.4-8.8-9.8-17-15-25.4c-1-1.7-1.5-3.9-4.1-5c-4.3,7.3-8.7,14.7-13,22
		c-1.9,3.2-3.8,6.5-5.8,9.7c-4.1,6.8-4.1,6.8-12.8,5.8c-0.6-1.7,0.7-2.8,1.4-3.9c8.4-14,16.8-28,25.2-42c0.5-0.9,1.1-1.8,1.7-2.6
		c2.7-3.4,5.6-3.5,8.2-0.3c0.3,0.3,0.5,0.7,0.7,1c9.3,15.4,18.5,30.8,27.8,46.3C121.6,64.9,121.5,65.4,121.6,66.1z"/>
	<path d="M417.3,38.7c5.1-6,10.4-11.4,14.7-17.5c4-5.7,8.9-6.7,15.1-5.2c-0.3,2.5-2.2,3.7-3.4,5.2c-6.4,7.5-12.7,15-19.2,22.4
		c-2.3,2.5-3.3,5.1-3.1,8.5c0.2,3.8-0.1,7.5,0.1,11.3c0.2,3.7-2.3,3.2-4.6,3.3c-2.4,0-4.9,0.3-4.5-3.3c0.1-0.8-0.1-1.7,0-2.5
		c1.5-9.6-1.7-17.3-8.7-24c-5.3-5-9.7-11-14.4-16.6c-1-1.2-2.7-2.1-2.5-4.7c2.8,0,5.7,0.1,8.5,0c2.2-0.1,3.3,1.4,4.6,2.8
		c4.3,5.1,8.6,10.2,13,15.3C414.1,35.3,415.6,36.8,417.3,38.7z"/>
</g>
<g id="Layer_2">
	<circle class="st0" cx="326.9" cy="63.2" r="9.2"/>
	<path class="st1" d="M336.5,49.1l2.4-0.6l1.9,4.2l-6.4,7c0,0-2.6,0.8-3.9-1.1s-0.2-3.9-0.2-3.9L336.5,49.1z"/>
	<circle class="st2" cx="348.4" cy="41.6" r="13.7"/>
	<path class="st1" d="M360.1,44.4c0,0-3,3.2-3,5.1l13.1,7.4l3-6L360.1,44.4z"/>
	<path class="st1" d="M339.8,32.8c0,0,4.2,0.1,4.9-3.2l-6-11.6l-5.1,1.8l-0.1,1.6L339.8,32.8z"/>
	<circle class="st3" cx="330.9" cy="10.6" r="10.6"/>
	<circle class="st4" cx="380.8" cy="58" r="10.8"/>
	<circle class="st5" cx="364.7" cy="23.9" r="9.2"/>
	<path class="st1" d="M354.8,29.4c0.4,0,2.8-2.9,2.8-2.9s1.4-0.9,2.1-0.6c0,0,2.1,1.2,2.4,2.2c0,0,0,1.8-0.6,2.1L359,33L354.8,29.4z
		"/>
</g>
</svg>
