<?xml version="1.0" encoding="utf-8"?>
<!-- Generator: Adobe Illustrator 21.0.2, SVG Export Plug-In . SVG Version: 6.00 Build 0)  -->
<svg version="1.1" id="Calque_1" xmlns="http://www.w3.org/2000/svg" xmlns:xlink="http://www.w3.org/1999/xlink" x="0px" y="0px"
	 viewBox="0 0 1398.7 1382.2" style="enable-background:new 0 0 1398.7 1382.2;" xml:space="preserve">
<style type="text/css">
	.st0{fill:#4E8EF7;}
</style>
<g>
	<path class="st0" d="M10.4,1032.7h18v341.1h-18V1032.7z M284.6,1024.3c-102.3,0-179.6,77.2-179.6,179
		c0,102.3,77.2,178.9,179.6,178.9c102.4,0,179.6-76.6,179.6-178.9C464.2,1101.6,387,1024.3,284.6,1024.3L284.6,1024.3z
		 M284.6,1365.5c-92,0-161.6-69.5-161.6-162.2c0-92.7,69.5-162.2,161.6-162.2s161.6,69.5,161.6,162.2
		C446.2,1296,376.7,1365.5,284.6,1365.5z M804.7,1058.5c-38.6-31.5-85-34.1-108.8-34.1c-54.1,0-113.9,25.1-135.2,74h-1.3v-65.7h-18
		v341.1h18v-196.3c0-85.6,52.8-136.5,138.4-136.5c51.5,0,79.1,16.7,96.5,32.2c25.7,23.2,41.8,61.1,41.8,120.4v180.2h18v-180.2
		C854.3,1132.5,838.2,1086.8,804.7,1058.5z M954.1,1032.7h18v341.1h-18V1032.7z M1228.3,1365.5c-86.9,0-161.6-65.7-161.6-162.2
		c0-46.3,19.3-91.4,47-116.5c35.4-31.5,66.9-45.7,115.2-45.7c66.9,0,126.2,37.3,149.3,102.3h20c-27-80.5-100.4-119.1-169.9-119.1
		c-103.6,0-179.6,78.5-179.6,179.6c0,106.2,80.5,178.3,179.6,178.3c81.1,0,145.5-46.3,169.3-115.9h-19.9
		C1360.9,1317.2,1305.5,1365.5,1228.3,1365.5z"/>
	<circle class="st0" cx="19.5" cy="927" r="19.5"/>
	<circle class="st0" cx="963.1" cy="927" r="19.5"/>
	<circle class="st0" cx="704.3" cy="435.9" r="178"/>
	<path class="st0" d="M1067.5,133.9c0-33.8-27.4-61.2-61.2-61.2c-14.7,0-29,5.3-40.1,15C893.3,32.7,802.5,0,704.3,0
		C464,0,268.4,195.5,268.4,435.9c0,240.3,195.5,435.9,435.9,435.9s435.9-195.5,435.9-435.9c0-98.2-32.7-189-87.7-261.9
		C1062.2,162.9,1067.5,148.6,1067.5,133.9L1067.5,133.9z M704.3,857.1c-232.3,0-421.2-189-421.2-421.2
		c0-232.3,189-421.2,421.2-421.2c94.4,0,181.7,31.2,252,83.9c-7.3,10.3-11.3,22.7-11.3,35.3c0,33.8,27.4,61.2,61.2,61.2
		c13.2,0,25.3-4.2,35.3-11.3c52.7,70.3,83.9,157.6,83.9,252C1125.5,668.1,936.6,857.1,704.3,857.1L704.3,857.1z"/>
</g>
</svg>
