<?xml version="1.0" encoding="utf-8"?>
<!-- Generator: Adobe Illustrator 21.0.2, SVG Export Plug-In . SVG Version: 6.00 Build 0)  -->
<svg version="1.1" id="Calque_1" xmlns="http://www.w3.org/2000/svg" xmlns:xlink="http://www.w3.org/1999/xlink" x="0px" y="0px"
	 viewBox="0 0 2096.4 1168.6" style="enable-background:new 0 0 2096.4 1168.6;" xml:space="preserve">
<style type="text/css">
	.st0{fill:#8E714E;}
	.st1{fill:#442D22;}
	.st2{fill:#FFFFFF;}
	.st3{fill:#A6A385;}
	.st4{fill:#499D4A;}
	.st5{fill:#58AA50;}
</style>
<g>
	<path class="st0" d="M1924.1,750.9c-2.2,0.4-4.5,5.4-4.5,8.1c-0.4,18-0.9,65.8-0.9,98.2c0,0.9,1.3,2.7,2.7,2.7
		c6.8,0.4,23,0.9,36.9,0.9c19.4,0,30.6-2.7,37-5.4c16.2-8.1,23.9-25.7,23.9-45.1c0-43.7-30.6-60.4-76.2-60.4
		C1939.9,749.5,1930.8,749.5,1924.1,750.9L1924.1,750.9z M2040.3,952.3c0-44.6-32.9-69.4-92.4-69.4c-2.7,0-21.6-0.4-26.1,0.4
		c-1.4,0.5-3.1,1.4-3.1,2.7c0,32-0.5,82.9,0.9,102.7c0.9,8.6,7.2,20.7,14.9,24.3c8.1,4.5,26.6,5.4,39.2,5.4
		C2009.2,1018.5,2040.3,998.7,2040.3,952.3L2040.3,952.3z M1832.2,726.1c4.5,0,18,1.3,52.7,1.3c32.9,0,59-0.9,91-0.9
		c39.2,0,93.3,14,93.3,72.5c0,28.8-20.3,51.8-46.9,63.1c-1.3,0.4-1.3,1.3,0,1.8c37.8,9.5,71.2,32.9,71.2,77.1
		c0,43.3-27,70.7-66.2,87.9c-23.9,10.4-53.6,14-83.8,14c-23,0-84.7-2.7-119-1.8c-3.6-1.4,3.2-17.6,6.3-20.3c8.1-0.5,14.4-0.9,23-3.6
		c12.2-3.1,13.5-6.8,15.3-25.2c0.9-15.8,0.9-71.7,0.9-111.3c0-54.5,0.5-91.5,0-109.5c-0.4-14-5.4-18.5-15.3-21.2
		c-7.7-1.3-20.3-3.2-30.6-4.5C1821.8,743.2,1829.5,727.9,1832.2,726.1L1832.2,726.1z M1572.2,1006.4c10.8,8.6,32,12.2,50.9,12.2
		c24.3,0,48.7-4.5,72.1-25.7c23.9-21.6,40.6-55,40.6-108.1c0-50.9-19.4-92.4-59-116.7c-22.5-14-51.4-19.8-84.7-19.8
		c-9.9,0-19.4,0.4-25.2,3.1c-1.4,0.9-4.5,5-4.5,7.2c-0.9,9-0.9,78.4-0.9,119c0,41.9,0,100.5,0.9,107.2
		C1562.3,991.5,1565.4,1001.9,1572.2,1006.4L1572.2,1006.4z M1469.9,726.1c8.6,0,41.5,1.4,57.2,1.4c28.4,0,48.7-1.3,102.3-1.3
		c45.1,0,82.9,12.2,109.9,35.1c32.9,28.4,50,67.6,50,115.4c0,68-31.1,107.2-62.2,129.8c-31.1,23-71.6,36.5-129.3,36.5
		c-30.6,0-83.4-0.9-127.1-1.4h-0.4c-2.3-4.1,3.6-19.8,7.2-20.3c11.7-1.4,14.9-1.8,20.7-4.1c9.5-3.6,11.3-8.6,12.6-25.2
		c1.3-31.1,0.9-68.5,0.9-110.8c0-30.2,0.4-89.2-0.5-108.1c-1.3-15.8-8.1-19.8-21.6-22.5c-6.8-1.3-15.8-3.2-28.4-4.5
		C1459.5,742.8,1467.6,728.8,1469.9,726.1L1469.9,726.1z"/>
	<path class="st1" d="M924.7,1024c-11.3-1.4-19.4-3.1-29.3-7.7c-1.4-0.9-3.6-5.4-3.6-7.2c-0.9-15.8-0.9-60.8-0.9-91
		c0-24.3-4.1-45.5-14.4-60.4c-12.2-17.1-29.7-27-52.3-27c-19.8,0-46.4,13.5-68.5,32.4c-0.4,0.4-4.1,3.6-3.6-1.4
		c0-5,0.9-14.9,1.4-21.6c0.5-6.3-3.2-9.5-3.2-9.5c-14.4,7.2-55,16.7-69.8,18c-10.8,2.3-13.5,12.6-2.2,16.2h0.4
		c12.2,3.6,20.3,7.7,26.6,11.7c4.5,3.6,4.1,8.6,4.1,12.6c0.4,33.8,0.4,85.6-0.9,114c-0.4,11.3-3.6,15.3-11.7,17.1l0.9-0.4
		c-6.3,1.4-11.3,2.7-18.9,3.6c-2.7,2.7-2.7,17.1,0,20.3c5,0,31.1-1.4,52.7-1.4c29.7,0,45.1,1.4,52.7,1.4c3.2-3.6,4.1-17.1,2.3-20.3
		c-8.6-0.4-14.9-1.3-20.7-3.2c-8.1-1.8-10.4-5.9-10.8-15.3c-0.9-23.9-0.9-74.4-0.9-108.6c0-9.5,2.7-14,5.4-16.7
		c10.4-9,27-15.3,41.9-15.3c14.4,0,23.9,4.5,31.1,10.4c9.9,8.1,13.1,19.8,14.4,28.4c2.3,19.4,1.4,57.7,1.4,91
		c0,18-1.4,22.5-8.1,24.8c-3.2,1.4-11.3,3.2-20.7,4.1c-3.2,3.2-2.3,17.1,0,20.3c13.1,0,28.4-1.4,50.9-1.4c27.9,0,46,1.4,53.2,1.4
		C925.6,1040.6,926.5,1027.6,924.7,1024L924.7,1024z M1049.5,851.8c-23.9,0-38.8,18.5-38.8,47.3c0,29.3,13.1,63.1,50,63.1
		c6.3,0,18-2.7,23.4-9c8.6-8.1,14.4-24.3,14.4-41.5C1098.6,874.4,1080.1,851.8,1049.5,851.8L1049.5,851.8z M1046.3,1051
		c-9,0-15.3,2.7-19.4,5c-18.9,12.2-27.5,23.9-27.5,37.9c0,13.1,5,23.4,15.8,32.4c13.1,11.3,31.1,16.7,54.1,16.7
		c46,0,66.2-24.8,66.2-49.1c0-17.1-8.6-28.4-26.1-34.7C1096.8,1053.7,1073.8,1051,1046.3,1051L1046.3,1051z M1049.5,1168.1
		c-27.5,0-47.3-5.9-64.4-18.9c-16.7-12.6-23.9-31.5-23.9-44.6c0-3.6,0.9-13.5,9-22.5c5-5.4,15.8-15.8,41.5-33.3
		c0.9-0.4,1.3-0.9,1.3-1.8c0-0.9-0.9-1.8-1.8-2.2c-21.2-8.1-27.5-21.2-29.3-28.4v-0.9c-0.4-2.7-1.3-5.4,2.7-8.1
		c3.2-2.3,7.7-5,12.6-8.1c7.7-4.5,15.8-9.5,20.7-13.5c0.9-0.9,0.9-1.8,0.9-2.7c0-0.9-0.9-1.8-1.8-2.3
		c-31.5-10.4-47.3-33.8-47.3-68.9c0-23,10.4-43.7,28.8-56.8c12.6-9.9,44.2-22.1,64.9-22.1h1.4c21.2,0.4,32.9,5,49.6,10.8
		c9,3.2,17.6,4.5,29.3,4.5c17.6,0,25.2-5.4,31.5-11.7c0.5,0.9,1.4,3.2,1.8,9c0.4,5.9-1.4,14.4-5.9,20.7c-3.6,5-11.7,8.6-19.8,8.6
		h-2.3c-8.1-0.9-11.7-1.8-11.7-1.8l-1.8,0.9c-0.4,0.9,0,1.8,0.4,3.2l0.5,0.9c0.9,4.1,2.7,16.2,2.7,19.4c0,36.9-14.9,53.2-30.6,65.3
		c-15.3,11.3-32.9,18.5-52.7,20.3c-0.4,0-2.2,0-6.3,0.4c-2.3,0-5.4,0.5-5.9,0.5h-0.4c-3.6,0.9-12.6,5.4-12.6,13.1
		c0,6.8,4.1,14.9,23.4,16.2c4.1,0.4,8.1,0.4,12.6,0.9c25.7,1.8,57.7,4.1,72.5,9c20.7,7.7,33.8,26.1,33.8,48.2
		c0,33.3-23.9,64.4-63.5,83.8C1090,1163.6,1070.7,1168.1,1049.5,1168.1L1049.5,1168.1z M1306.3,854.1c-9.5,0-18,2.2-24.3,6.8
		c-17.6,10.8-26.6,32.4-26.6,64c0,59,29.7,100.5,72.1,100.5c12.6,0,22.5-3.6,31.1-10.8c13.1-10.8,19.8-32.4,19.8-62.6
		C1378.4,893.3,1349.1,854.1,1306.3,854.1L1306.3,854.1z M1314.4,1046.9c-76.6,0-104.1-56.3-104.1-109c0-36.9,14.9-65.3,44.6-85.6
		c21.2-13.1,46.4-20.3,68.9-20.3c58.6,0,99.6,41.9,99.6,102.3c0,41-16.2,73.4-47.3,93.3C1361.3,1037.5,1335.6,1046.9,1314.4,1046.9
		L1314.4,1046.9L1314.4,1046.9z M511.5,854.1c-9.5,0-18,2.3-24.3,6.8c-17.6,10.8-26.6,32.4-26.6,64c0,59,29.7,100.5,72.1,100.5
		c12.6,0,22.5-3.6,31.1-10.8c13.1-10.8,19.8-32.4,19.8-62.6C583.6,893.3,554.7,854.1,511.5,854.1L511.5,854.1z M519.6,1046.9
		c-76.6,0-104.1-56.3-104.1-109c0-36.9,14.9-65.3,44.6-85.6c21.2-13.1,46.4-20.3,68.9-20.3c58.6,0,99.6,41.9,99.6,102.3
		c0,41-16.2,73.4-47.3,93.3C566.9,1037.5,541.2,1046.9,519.6,1046.9L519.6,1046.9z M4.6,1042.4c-0.9-1.3-1.8-5.4-1.4-10.4
		c0-3.6,0.9-5.9,1.4-6.8c9.5-1.4,14.4-2.7,19.8-4.1c9-2.3,12.6-7.2,13.1-18.5c1.4-27,1.4-78.4,0.9-114v-0.9c0-4.1,0-9-5-12.6
		c-7.2-4.5-15.8-8.6-27-11.7c-4.1-1.3-6.8-3.6-6.3-6.3c0-2.7,2.7-5.9,8.6-6.8c14.9-1.4,53.6-10.8,68.9-17.6c0.9,0.9,2.3,3.6,2.3,7.2
		l-0.4,5c-0.5,5-0.9,10.8-0.9,16.7c0,1.8,1.8,3.2,3.6,3.2c0.9,0,1.8-0.4,2.7-0.9c28.8-22.5,55-30.6,68.5-30.6
		c22.1,0,39.2,10.4,52.3,32c0.9,1.4,1.8,1.8,3.2,1.8c0.9,0,2.2-0.4,2.7-1.4c26.6-20.3,53.2-32.4,70.7-32.4
		c41.9,0,66.7,31.1,66.7,83.8c0,14.9,0,34.2-0.4,51.8c0,15.8-0.4,30.2-0.4,40.6c0,2.2,3.1,9.5,8.1,10.8c6.3,3.2,14.9,4.5,26.1,6.3
		h0.4c0.9,3.2-0.9,14.9-2.7,17.1c-2.7,0-6.8,0-11.3-0.4c-11.4-0.6-22.8-0.9-34.2-0.9c-27.9,0-42.4,0.4-56.3,1.4
		c-0.9-3.6-1.3-14.4,0-17.1c8.1-1.3,12.2-2.7,17.1-4.1c9-2.7,11.3-6.8,11.7-18.5c0-8.6,1.8-81.6-0.9-99.1c-2.7-18-16.2-39.2-46-39.2
		c-11.3,0-28.8,4.5-46,17.6c-0.9,0.9-1.8,3.2-1.8,4.5v0.5c1.8,9.5,1.8,20.3,1.8,36.9v29.3c0,20.3-0.5,39.2,0,53.6
		c0,9.9,5.9,12.2,10.8,14c2.7,0.4,4.5,0.9,6.8,1.3c4.1,0.9,8.1,1.8,14.4,3.2c0.9,1.8,0.9,7.7-0.4,12.6c-0.5,2.7-1.4,4.1-1.8,4.5
		c-15.3-0.4-31.1-0.9-54.1-0.9c-6.8,0-18.5,0.5-28.4,0.5c-8.1,0-15.8,0.4-20.3,0.4c-0.5-0.9-1.4-4.1-1.4-9c0-4.1,0.9-7.2,1.8-8.1
		c2.3-0.4,4.1-0.9,6.3-0.9c5.4-0.9,9.9-1.8,14.4-2.7c7.7-2.3,10.4-6.3,10.8-16.2c1.4-22.5,2.7-87-0.4-103.2
		c-5.4-26.1-20.3-39.2-44.2-39.2c-14,0-31.5,6.8-46,17.6c-2.3,1.8-4.1,6.3-4.1,10.4V919c0,32.4,0,73,0.4,90.6
		c0.5,5.4,2.3,11.7,12.6,14c2.3,0.4,5.9,1.4,10.4,1.8l8.1,1.3c0.9,2.7,0.5,13.5-1.3,17.1c-4.5,0-9.9-0.4-16.2-0.4
		c-9.5-0.5-21.6-0.9-35.1-0.9c-15.8,0-27,0.4-36,0.9C14.9,1042.4,10,1042.4,4.6,1042.4L4.6,1042.4z"/>
	<g>
		<path class="st2" d="M1064,693.9l-18.5-6.3c0,0,2.3-94.2-31.5-100.9c-22.5-26.1,3.6-1108.5,84.7-3.6c0,0-27.9,14-32.9,37.9
			C1060.4,644.4,1064,693.9,1064,693.9L1064,693.9z"/>
		<path class="st3" d="M1064,693.9l-18.5-6.3c0,0,2.3-94.2-31.5-100.9c-22.5-26.1,3.6-1108.5,84.7-3.6c0,0-27.9,14-32.9,37.9
			C1060.4,644.4,1064,693.9,1064,693.9L1064,693.9z"/>
		<path class="st2" d="M1073.9,602.9c0,0,161.8-106.3,123.9-327.6c-36.5-160.9-122.6-213.6-132-233.9
			c-10.4-14.4-20.3-39.6-20.3-39.6l6.8,447.4C1052.3,449.7,1038.3,586.2,1073.9,602.9"/>
		<path class="st4" d="M1073.9,602.9c0,0,161.8-106.3,123.9-327.6c-36.5-160.9-122.6-213.6-132-233.9
			c-10.4-14.4-20.3-39.6-20.3-39.6l6.8,447.4C1052.3,449.7,1038.3,586.2,1073.9,602.9"/>
		<path class="st2" d="M1036.1,608.8c0,0-151.9-103.6-142.8-286.1c8.6-182.5,115.8-272.2,136.5-288.4c13.5-14.4,14-19.8,14.9-34.2
			c9.5,20.3,7.7,303.3,9,336.6C1057.7,465,1046.4,584.4,1036.1,608.8z"/>
		<path class="st5" d="M1036.1,608.8c0,0-151.9-103.6-142.8-286.1c8.6-182.5,115.8-272.2,136.5-288.4c13.5-14.4,14-19.8,14.9-34.2
			c9.5,20.3,7.7,303.3,9,336.6C1057.7,465,1046.4,584.4,1036.1,608.8z"/>
	</g>
</g>
</svg>
