<?xml version="1.0" encoding="utf-8"?>
<!-- Generator: Adobe Illustrator 19.2.1, SVG Export Plug-In . SVG Version: 6.00 Build 0)  -->
<svg version="1.1" id="Layer_1" xmlns="http://www.w3.org/2000/svg" xmlns:xlink="http://www.w3.org/1999/xlink" x="0px" y="0px"
	 viewBox="0 0 1158.87805 200.41722" style="enable-background:new 0 0 1158.87805 200.41722;" xml:space="preserve">
<style type="text/css">
	.st0{fill:#010101;}
	.st1{fill:#AF151D;}
	.st2{fill:#B0141D;}
	.st3{fill:#6E3134;}
	.st4{fill:#E8E8E8;}
	.st5{fill:#FAFAFA;}
	.st6{fill:#F4F4F4;}
</style>
<path class="st0" d="M253.71983,18.21888c-0.8107-12.16031-5.58475-16.75422-17.5649-16.93435
	c-28.19389-0.3603-56.3878-0.3603-84.58174,0c-12.2504,0.18016-17.5649,5.58475-17.83511,17.9252
	c-0.45039,20.53741-0.45039,41.16492,0,61.70234c0.27022,12.43053,5.40459,17.47482,17.83511,17.92519
	c13.96187,0.45039,27.8336,0.09009,41.79544,0.09009c14.59239,0,29.18477,0.3603,43.77711-0.18017
	c10.89922-0.3603,15.76337-4.9542,16.48399-15.94353C255.16103,61.36547,255.071,39.74713,253.71983,18.21888z M224.3549,80.73189
	c-10.26874-0.3603-20.62752-0.09008-30.89619-0.09008c-9.99846,0-19.90686-0.18016-29.90538,0.09008
	c-5.04428,0.18017-7.11603-1.26106-7.02594-6.66564c0.27022-16.66414,0.27022-33.23819,0-49.90232
	c-0.09009-4.68399,1.80153-5.49467,5.85497-5.49467c20.89774,0.09008,41.88551,0.18016,62.78325,0
	c5.04427-0.09008,6.03514,1.98169,5.94502,6.48551c-0.18016,16.30383-0.27022,32.60767,0,48.82141
	C231.2908,79.38074,229.48927,80.91206,224.3549,80.73189z"/>
<path class="st0" d="M56.09219,98.92734c-12.2504,0-24.59085,0.45038-36.84124-0.09009
	C5.37919,98.29679-3.08798,85.23571,1.05551,71.90442c0.45038-1.35114,0.63055-2.61221,2.34199-2.70229
	c4.32366-0.09009,8.64734,0.09008,12.97099-0.18017c7.83666-0.63055,4.77404,5.13437,5.40458,8.82748
	c0.54046,3.42289,3.06259,2.88245,5.3145,2.88245c19.27635,0,38.55269-0.09008,57.73898,0.09009
	c4.68398,0.09008,5.6748-1.9817,5.40458-5.94505c-0.18016-2.97251-0.3603-6.03513,0-8.91756
	c0.7206-5.58475-1.35114-7.2962-7.02595-7.20611c-17.29468,0.3603-34.49925,0.18016-51.79393,0.09008
	C9.97308,58.75325,5.10893,53.88913,5.10893,32.45095c0-28.46415,2.88246-31.52674,31.07636-31.43666
	c18.2855,0,36.48094,0.09008,54.76644,0.3603c8.64734,0.09008,15.67329,3.15267,17.92519,12.52061
	c1.17098,4.86412,3.15267,11.52977,0.09008,14.23206c-4.2336,3.78322-11.34963,1.17098-17.2046,1.35114
	c-1.98169,0.09008-3.06259-1.53131-2.70229-3.33284c1.26106-8.01679-4.05344-7.20611-9.18781-7.20611
	c-15.58318,0.0901-31.25648,0.63057-46.83969-0.18014c-10.17862-0.54046-6.84581,6.21527-7.20611,10.98933
	c-0.45038,5.40459-1.08093,9.99849,7.56641,9.63819c18.55574-0.7206,37.20155-0.3603,55.75728-0.18016
	c16.21375,0.09008,21.43817,5.40458,21.70842,21.52824c0.09008,6.9359,0.3603,13.96185-0.18017,20.89774
	c-0.90076,11.70994-5.94505,16.8443-17.65498,17.29469C80.68307,99.28764,68.34259,98.92734,56.09219,98.92734z"/>
<path class="st0" d="M1077.91882,61.99601c6.93579,0,10.8092,0.09008,14.6825,0
	c14.50232-0.54047,19.36646-5.58475,19.45642-20.26719c0-5.94505,0-11.98015,0-17.9252
	c0-17.65498-4.50378-22.60918-22.15869-22.78932c-25.58179-0.3603-51.07324,0.09008-76.65503-0.27022
	c-6.12524-0.09008-7.83661,1.53131-7.74652,7.74658c0.36029,26.21224,0.63049,52.42448-0.09009,78.63671
	c-0.27026,9.99849,2.16187,12.971,12.34045,12.52061c8.64728-0.3603,12.88092-1.89161,11.34955-11.34963
	c-0.63049-3.51297-0.08997-7.29619-0.08997-10.89925c0-16.75422,0-16.66413,16.84424-15.49315
	c3.78308,0.27022,6.03503,2.07174,8.46716,4.41373c10.0885,9.5481,20.3573,19.00613,30.44592,28.55423
	c2.16174,1.98169,3.87329,4.50382,7.38611,4.41373c9.45813-0.09008,18.91614,0,30.98633,0
	C1107.3739,86.31664,1093.77234,75.05709,1077.91882,61.99601z M1057.83179,45.06163h-11.89001
	c-17.02441,0-16.48401,0-17.20459-16.8443c-0.27026-8.28704,1.8916-10.80917,10.2688-10.2687
	c13.15112,0.81068,26.48242,0.54046,39.63354,0.09008c12.88098-0.45038,10.2688,8.46717,10.8092,16.12367
	c0.63049,8.37709-2.79236,11.43972-10.89917,10.98933C1071.7937,44.79142,1064.7677,45.06163,1057.83179,45.06163z"/>
<path class="st0" d="M768.77667,95.68458c-17.02448-29.90537-34.04895-59.90081-51.25348-89.80618
	c-4.59387-7.92671-23.96033-7.38628-28.5542,0.63054c-9.99847,17.5649-19.90686,35.1298-29.90533,52.78477
	c-7.29614,12.88091-14.50226,25.76186-21.97864,39.00307c21.61835,2.88245,22.06873,3.06259,30.26562-13.3313
	c3.24274-6.39543,7.47638-7.11603,13.51147-7.02595c12.34039,0.27022,24.68097,0.99084,36.84125-0.18016
	c11.52985-1.08093,18.73596,2.34199,22.69922,13.51146c1.26111,3.51297,2.34198,8.46717,8.46722,8.10687
	c6.84576-0.45038,13.69153-0.09008,21.16797-0.09008C769.40717,97.39603,769.22705,96.49527,768.77667,95.68458z
	 M681.85297,58.75326c6.93579-12.61069,13.42139-24.59085,20.71753-37.83208c7.026,13.24124,13.24121,25.04123,19.99695,37.83208
	H681.85297z"/>
<path class="st0" d="M329.384,0.83415c13.96185,0,27.92368,0.54046,41.79547-0.18016
	c8.19693-0.45038,7.83664,3.51297,8.01682,9.36794c0.27023,6.57557-1.08093,9.1878-8.46719,9.00764
	c-19.90686-0.54046-39.81378,0.09008-59.72064-0.3603c-6.39542-0.09008-8.37711,1.44123-8.28705,8.10688
	c0.27023,16.66413-0.09006,16.66413,16.48398,16.66413c4.68399,0,9.36795,0.54047,13.96182-0.09008
	c8.01685-1.08093,11.07941,1.35115,10.62903,9.99849c-0.36035,6.57557-1.35117,9.99849-8.64731,8.82748
	c-2.61224-0.45039-5.31454-0.18016-7.92673,0c-7.83667,0.54047-18.19543-3.51298-22.78931,1.71145
	c-3.87329,4.32365-0.99081,14.5023-1.62137,22.06872c-0.36032,4.41373,2.70227,11.07938-1.80154,12.70078
	c-5.94501,1.98169-13.15112,0.99084-19.72675,0.54047c-3.15268-0.27022-1.89157-3.69314-1.89157-5.76488
	c-0.09006-28.82445,0.09006-57.73898-0.18018-86.56343c-0.09006-5.3145,2.07175-5.85497,6.39542-5.76488
	C300.19922,0.9242,314.79163,0.83415,329.384,0.83415z"/>
<path class="st0" d="M455.13062,0.83415c16.30383,0,32.51758,0.54046,48.82144-0.27022
	c8.37711-0.3603,7.11606,4.2336,7.11606,9.1878c0,5.04428,0.90076,9.81832-7.29617,9.1878
	c-10.26874-0.81068-20.53741,0.09008-30.80615-0.3603c-5.40457-0.27022-6.57556,1.71144-6.57556,6.75573
	c0.27023,21.52825-0.2702,43.14659,0.27023,64.67487c0.18015,7.56641-1.8916,10.35878-9.36798,9.1878
	c-2.61224-0.45038-5.31451-0.3603-7.9267,0c-5.22443,0.7206-6.75574-1.26106-6.66568-6.57556
	c0.2702-21.25803-0.27023-42.51608,0.36032-63.68402c0.18018-7.92671-1.26108-11.25955-9.99844-10.44887
	c-9.5481,0.90076-19.2764-0.18016-28.82446,0.3603c-8.01682,0.45038-6.12518-4.9542-6.2153-9.1878
	c-0.09006-4.41374-1.44119-9.27786,6.39542-9.00764C421.26193,1.19445,438.19629,0.83415,455.13062,0.83415z"/>
<path class="st0" d="M744.27594,2.27535c21.52826-6.48551,36.39087,1.26106,48.10083,18.55574
	c4.05341,6.03513,8.91754,15.49315,15.49304,14.95269c5.4046-0.45038,10.08856-9.63818,15.04272-14.95269
	c1.62146-1.71144,3.513-3.24276,4.68396-5.13437c9.09766-15.67329,23.23975-17.2046,40.17401-13.87176
	c-15.31299,16.21375-30.17554,32.0672-45.30847,47.65041c-3.513,3.60305-5.13428,7.20611-4.95416,12.25039
	c0.36029,9.99849-0.27026,19.99698,0.27026,29.90538c0.36035,6.21526-1.71149,7.83665-7.74658,7.74657
	c-15.94342-0.09008-17.20453,0.09008-15.67328-16.12367c1.8916-19.63664-3.06262-34.94963-18.64575-48.01071
	C764.09271,25.60516,754.72479,13.44484,744.27594,2.27535z"/>
<path d="M526.29095,49.8357c0-13.96183,0.27026-27.92368-0.09003-41.88552c-0.18018-5.49467,1.26111-8.10688,7.02594-7.20611
	c1.6214,0.27022,3.33282,0.27022,4.95422,0c8.37708-1.44123,11.34961,1.26106,10.98932,10.44887
	c-0.81073,20.53741,0,41.16491-0.36035,61.79242c-0.09003,6.21526,1.71149,7.92671,7.83667,7.74657
	c19.54663-0.3603,39.18323,0.3603,58.81989-0.3603c9.09778-0.36031,7.20618,4.9542,7.38629,9.99848
	c0.18011,5.04429,0.99078,9.27786-7.20612,9.09772c-27.56335-0.63055-55.12677-0.3603-82.69012-0.09008
	c-5.22443,0.09008-6.75574-1.44123-6.66571-6.66565C526.56122,78.3899,526.29095,64.15784,526.29095,49.8357z"/>
<path d="M934.51721,40.73798c14.23212,0,28.5542,0.45038,42.78632-0.18016c8.9176-0.3603,6.12524,5.49467,6.39539,9.81833
	c0.18011,4.32365,1.62146,8.91756-6.30536,8.82748c-29.18475-0.45039-58.36951-0.45039-87.64435,0
	c-7.83661,0.09008-6.66571-4.32366-6.39539-8.73743c0.27026-4.2336-2.70233-10.2687,6.3053-9.9084
	C904.61194,41.18836,919.56458,40.73798,934.51721,40.73798z"/>
<path class="st1" d="M932.89581,19.47994c-14.32214,0-28.5542-0.45038-42.87634,0.18016
	c-7.65649,0.3603-7.026-4.05344-6.66565-8.73742c0.36029-4.32366-2.52222-10.08857,6.39539-9.9084
	c29.27484,0.45038,58.45959,0.3603,87.73444,0c9.00763-0.09008,5.67487,5.94505,6.12524,10.08857
	c0.63049,5.04428,0.36029,8.82747-6.93585,8.55726C962.17065,19.11964,947.57831,19.47994,932.89581,19.47994z"/>
<path class="st2" d="M883.8042,96.76551c-0.09009-0.63054-0.27032-1.26106-0.36035-1.98169
	c-0.54041-14.05193-0.54041-14.14201,13.87177-14.14201c23.8703,0,47.65045,0,71.52069,0c15.58325,0,15.58325,0,14.50232,16.12367
	c-3.69312,2.16183-7.74658,0.99084-11.61987,1.08092c-26.12219,0.09008-52.1543,0.09008-78.27643,0
	C890.19971,97.84641,886.77673,98.83725,883.8042,96.76551z"/>
<path class="st3" d="M883.8042,96.76551c33.14813,0,66.38623,0,99.53442,0.09009c-0.7207,3.51297-3.69312,2.16183-5.58472,2.16183
	c-29.45496,0.09008-58.90997,0.09008-88.36493,0C887.40723,98.92734,884.43475,100.27848,883.8042,96.76551z"/>
<path class="st4" d="M1132.95557,6.86925c0.09009,0,0.27026,0,0.36035,0c-0.09009,0.09008-0.18018,0.09008-0.18018,0.18016
	L1132.95557,6.86925z"/>
<path class="st4" d="M1145.65637,23.4433L1145.65637,23.4433l-0.27026-0.18016c0.08997-0.09008,0.08997-0.09008,0.18005-0.18016
	C1145.56628,23.17308,1145.65637,23.35324,1145.65637,23.4433z"/>
<path class="st5" d="M1133.13574,7.04941c-0.09009,0.09008-0.09009,0.09008-0.18018,0.18016v-0.3603L1133.13574,7.04941z"/>
<path class="st6" d="M1145.65637,23.4433c-0.18018,0-0.36035,0.09008-0.63049,0.09008
	c0.08997-0.09008,0.27026-0.18016,0.36035-0.27022C1145.38611,23.26316,1145.65637,23.4433,1145.65637,23.4433z"/>
<g>
	<path d="M522.50421,175.2636h-0.17651c-0.55939,0.70605-1.26544,1.40585-2.1181,2.09673
		c-0.85358,0.69179-1.83911,1.30957-2.95654,1.85336c-1.11835,0.54468-2.33881,0.97705-3.6626,1.30154
		c-1.32385,0.32361-2.7359,0.48586-4.23627,0.48586c-2.02985,0-3.89081-0.30222-5.58237-0.90485
		c-1.69199-0.60263-3.14822-1.48518-4.36816-2.64764c-1.22131-1.16159-2.17029-2.5817-2.84647-4.25854
		c-0.67706-1.67685-1.01492-3.57478-1.01492-5.6929c0-2.08781,0.37485-3.95544,1.12546-5.60376
		c0.74973-1.64743,1.80124-3.04524,3.15491-4.19167c1.35281-1.14822,2.97839-2.03078,4.87634-2.64766
		c1.89703-0.6187,3.99332-0.92712,6.28796-0.92712c2.17651,0.0294,4.19208,0.22107,6.04547,0.5741
		c1.85333,0.35303,3.50031,0.79341,4.94226,1.32294h0.17651v-2.91153c0-1.14821-0.07397-2.1627-0.22058-3.04526
		c-0.14758-0.88255-0.39722-1.66168-0.75018-2.3392c-0.76538-1.41208-1.98578-2.5808-3.6626-3.50792
		c-1.67688-0.92624-3.9425-1.3898-6.79565-1.3898c-2.11813,0-4.11145,0.19879-5.97952,0.5955
		c-1.8685,0.3976-3.72858,0.94852-5.58191,1.65456v-5.73569c0.70602-0.35303,1.53687-0.68465,2.49298-0.9931
		c0.95566-0.30933,1.9639-0.5741,3.02295-0.79428c1.05908-0.2211,2.17651-0.38957,3.3537-0.50725
		c1.1763-0.11769,2.353-0.17651,3.53024-0.17651c4.23621,0,7.70044,0.74971,10.39178,2.25005
		c2.69226,1.50035,4.62585,3.48564,5.80304,5.95679c0.44122,0.94229,0.75684,1.97906,0.94891,3.11122
		c0.1908,1.13306,0.28662,2.37665,0.28662,3.729v27.97688h-5.73657L522.50421,175.2636z M522.15118,161.4958
		c-1.25964-0.35303-2.7533-0.69-4.48096-1.0145c-1.72809-0.32361-3.63092-0.50012-5.71027-0.52954
		c-2.89948,0-5.16916,0.6178-6.80902,1.85336c-1.64032,1.23557-2.46002,3.1335-2.46002,5.69202
		c0,1.2953,0.20462,2.42746,0.61514,3.39827c0.40961,0.97081,0.97345,1.77313,1.6911,2.40518
		c0.71719,0.63293,1.56674,1.10274,2.54779,1.41208c0.98062,0.30844,2.02768,0.46356,3.14066,0.46356
		c1.46466,0,2.82642-0.21306,4.08514-0.64008c1.25916-0.42612,2.37976-0.93336,3.36084-1.52261
		c0.98102-0.58838,1.81592-1.17586,2.50415-1.76511c0.68817-0.58838,1.19275-1.04391,1.51544-1.36752V161.4958z"/>
	<path d="M548.84839,143.80109h0.13239c0.76447-0.97083,1.61041-1.87566,2.53754-2.71364
		c0.92627-0.83887,1.9635-1.57343,3.11078-2.20639c1.14734-0.63205,2.40472-1.12502,3.77313-1.47804
		c1.36749-0.35301,2.86029-0.52953,4.47876-0.52953c1.91168,0,3.70667,0.26387,5.38354,0.7934
		c1.67682,0.52953,3.13306,1.38356,4.36865,2.5603s2.21307,2.71362,2.93427,4.61066c0.7207,1.89793,1.0813,4.23001,1.0813,6.99445
		v28.06514h-6.83972v-26.9615c0-3.61935-0.6994-6.22243-2.09631-7.81104c-1.3974-1.58859-3.43481-2.38289-6.11145-2.38289
		c-2.35388,0-4.63336,0.65524-6.83978,1.96391c-2.20636,1.30956-4.10388,3.11121-5.69244,5.40584v29.78568h-6.83978v-41.9212
		h5.29535L548.84839,143.80109z"/>
	<path d="M608.86194,179.89743v-59.0427h7.19275v59.0427H608.86194z"/>
	<path d="M659.74103,149.36116c1.82349,0.26476,3.46423,0.7506,4.91998,1.45665c1.45673,0.70604,2.70648,1.60999,3.75128,2.71362
		c1.04352,1.10274,1.84534,2.41231,2.40479,3.9269c0.55847,1.5155,0.83838,3.24406,0.83838,5.18567
		c0,1.38268-0.20416,2.8313-0.61151,4.3459c-0.40741,1.51549-1.08405,2.98642-2.02991,4.41277
		c-0.9458,1.42723-2.18231,2.74393-3.71027,3.95009c-1.52795,1.20615-3.42676,2.19122-5.69647,2.9561
		c-1.74634,0.58925-3.68176,1.00021-5.80609,1.23558c-2.12439,0.23622-4.67084,0.353-7.63904,0.353h-15.10406v-59.0427h14.56964
		c1.33771,0,2.55096,0.02229,3.64209,0.06598c1.0907,0.04457,2.09369,0.11053,3.01007,0.19879
		c0.91602,0.08826,1.76642,0.19881,2.55182,0.33073c0.7854,0.13283,1.52753,0.28705,2.2251,0.46356
		c1.83197,0.50101,3.49725,1.18475,4.99487,2.05215c1.49725,0.8683,2.76935,1.90506,3.81683,3.11032
		c1.04657,1.20705,1.85425,2.57545,2.42078,4.1043c0.56702,1.52977,0.85089,3.19235,0.85089,4.98688
		c0,1.4415-0.1698,2.82416-0.50769,4.14709c-0.33832,1.32472-0.88257,2.54514-1.63226,3.66304
		c-0.75061,1.11879-1.72144,2.11812-2.91241,3.00067c-1.19189,0.88255-2.64099,1.61801-4.3468,2.20638V149.36116z
		 M649.19458,146.40504c1.41199,0,2.63245-0.06686,3.66254-0.19879c1.02924-0.13283,1.95587-0.33073,2.78003-0.59641
		c2.20642-0.73456,3.81683-1.88188,4.83221-3.44106c1.01447-1.55917,1.52216-3.39825,1.52216-5.51639
		c0-2.17696-0.52954-3.95633-1.58862-5.33987c-1.05902-1.38179-2.72156-2.41142-4.98633-3.08806
		c-1.11841-0.32359-2.41278-0.55181-3.88324-0.68462c-1.47137-0.13194-3.20709-0.19792-5.20709-0.19792h-8.07532v19.06312H649.19458
		z M638.25092,152.89136v20.51978h8.69312c2.05884,0,3.97144-0.0954,5.73657-0.28706
		c1.76508-0.19077,3.26544-0.49208,4.50104-0.90483c1.35284-0.44127,2.50006-1.00735,3.44196-1.69913
		c0.94092-0.69089,1.69916-1.45576,2.27234-2.29463c0.5741-0.83798,0.98547-1.72768,1.23553-2.66995
		c0.24963-0.94049,0.37531-1.89705,0.37531-2.86784c0-1.1179-0.13232-2.16893-0.39709-3.15491
		c-0.26477-0.98506-0.6994-1.86761-1.302-2.64766c-0.60309-0.77913-1.3974-1.46289-2.38287-2.05215
		c-0.98596-0.58836-2.21399-1.0439-3.68445-1.36751c-0.88257-0.20592-1.89081-0.35301-3.02295-0.44217
		c-1.13263-0.08736-2.53717-0.13193-4.21399-0.13193H638.25092z"/>
	<path d="M715.95874,179.89743h-3.3092l-14.8714-35.25749c-2.05933-4.85492-4.11859-10.13419-6.17792-15.84225h-0.35297
		c0.41187,8.20775,0.61871,15.72459,0.61871,22.54965v28.55009h-7.19238v-59.0427h10.36951l13.89978,33.40414
		c1.58856,3.82529,3.33936,8.42882,5.25073,13.81238h0.22107c2.1181-5.97194,3.86896-10.57545,5.25073-13.81238l13.90155-33.40414
		h10.36951v59.0427h-7.19232v-28.55009c0-6.67798,0.20502-14.19392,0.61688-22.54965H737.008
		c-2.17694,6.03078-4.23627,11.31183-6.17786,15.84225L715.95874,179.89743z"/>
	<path d="M802.03424,126.15003c-3.30646,0-6.39716,0.52242-9.27032,1.56631c-2.87506,1.04479-5.36932,2.60397-7.48389,4.67751
		c-2.11548,2.07445-3.78339,4.649-5.0047,7.72278c-1.22131,3.07468-1.83105,6.65659-1.83105,10.74486
		c0,4.05974,0.56512,7.58279,1.69733,10.56833c1.13123,2.98642,2.7395,5.45755,4.82465,7.41344
		c2.08417,1.95677,4.59375,3.4054,7.52661,4.34679c2.93292,0.94229,6.20105,1.41208,9.80432,1.41208
		c0.98242,0,2.02545-0.05081,3.12732-0.15422c1.10181-0.10252,2.2099-0.24962,3.32697-0.44128
		c1.11694-0.19077,2.20367-0.41183,3.26184-0.66234c1.0564-0.24962,2.00226-0.52151,2.83582-0.81569v6.35435
		c-1.73572,0.67662-3.75043,1.19814-6.0451,1.56631c-2.29462,0.36728-4.64899,0.55182-7.06042,0.55182
		c-4.91376,0-9.26678-0.68465-13.06177-2.05215c-3.79498-1.36841-6.98016-3.33231-9.55383-5.89081
		c-2.57452-2.5603-4.52325-5.68489-5.84619-9.37735c-1.32477-3.69156-1.98627-7.877-1.98627-12.55452
		c0-4.58928,0.69806-8.81036,2.09589-12.66417c1.39697-3.85381,3.41254-7.16382,6.04596-9.92915
		c2.63245-2.76444,5.82477-4.91999,9.5752-6.46491c3.75134-1.54402,7.96527-2.31602,12.64282-2.31602
		c1.23553,0,2.45593,0.05171,3.66211,0.15422c1.20618,0.10341,2.36151,0.2505,3.46423,0.44127
		c1.10364,0.19168,2.12524,0.41901,3.06665,0.68376c0.94141,0.26477,1.74994,0.54468,2.42743,0.83887v6.35436
		c-1.78735-0.58836-3.73877-1.08134-5.85333-1.47894C806.30792,126.34884,804.17822,126.15003,802.03424,126.15003z"/>
	<path d="M863.25745,158.98096c0,3.29488-0.47156,6.29555-1.41205,9.00204c-0.94232,2.70737-2.27319,5.02341-3.99377,6.94986
		c-1.72144,1.92735-3.80298,3.42056-6.24384,4.47961c-2.44257,1.05908-5.17853,1.58861-8.20862,1.58861
		c-3.11835,0-5.90594-0.52953-8.36194-1.58861c-2.45691-1.05905-4.54474-2.55226-6.26611-4.47961
		c-1.72052-1.92645-3.03815-4.24249-3.94922-6.94986c-0.91199-2.7065-1.36841-5.70717-1.36841-9.00204
		c0-3.32428,0.4707-6.33922,1.41211-9.0457c0.94141-2.7065,2.27325-5.03143,3.99377-6.97305
		c1.72137-1.94162,3.8092-3.44107,6.26611-4.50012c2.45599-1.05907,5.19995-1.58859,8.23004-1.58859
		c3.08887,0,5.86847,0.52953,8.3396,1.58859c2.47119,1.05905,4.55994,2.5585,6.26709,4.50012
		c1.70532,1.94162,3.01489,4.26656,3.92682,6.97305C862.80017,152.64174,863.25745,155.65668,863.25745,158.98096z
		 M856.10791,158.98096c0-2.58792-0.31647-4.89056-0.94849-6.90617c-0.63293-2.01472-1.5155-3.72099-2.64764-5.1188
		c-1.13312-1.39693-2.47833-2.45599-4.03748-3.17719c-1.56012-0.72031-3.26544-1.08047-5.11877-1.08047
		c-1.85339,0-3.55963,0.36017-5.11884,1.08047c-1.56006,0.72119-2.90527,1.78026-4.03741,3.17719
		c-1.13312,1.39781-2.01569,3.10408-2.64771,5.1188c-0.63293,2.01561-0.94855,4.31825-0.94855,6.90617
		c0,2.55942,0.31561,4.84691,0.94855,6.86163c0.63202,2.01559,1.52264,3.71472,2.66907,5.0974
		c1.14819,1.38268,2.50055,2.43459,4.05975,3.15489c1.55914,0.72121,3.2663,1.08136,5.11877,1.08136
		c1.85425,0,3.55249-0.36015,5.09741-1.08136c1.54401-0.72031,2.88208-1.77222,4.0152-3.15489
		c1.13214-1.38268,2.01471-3.0818,2.64764-5.0974C855.79144,163.82787,856.10791,161.54037,856.10791,158.98096z"/>
	<path d="M908.31134,179.89743h-6.84027v-26.9615c0-1.82393-0.19788-3.37599-0.59546-4.65613
		c-0.39673-1.27925-0.97083-2.33119-1.72052-3.15491c-0.75061-0.82281-1.64838-1.42633-2.69226-1.80968
		c-1.0448-0.38155-2.21356-0.57321-3.50793-0.57321c-2.44263,0-4.66321,0.65524-6.6637,1.96391
		c-2.00049,1.30956-3.79413,3.11121-5.38269,5.40584v29.78568h-6.84021v-41.9212h5.29529l1.32385,5.82486h0.1319
		c0.76489-0.97083,1.59576-1.87566,2.49347-2.71364c0.89679-0.83887,1.89795-1.57343,3.00067-2.20639
		c1.10364-0.63205,2.31689-1.12502,3.64075-1.47804c1.32379-0.35301,2.76447-0.52953,4.32446-0.52953
		c3.11749,0,5.70721,0.74971,7.76654,2.25005c2.05835,1.50035,3.64697,3.54538,4.76575,6.13332h0.17651
		c1.85602-2.61737,3.97772-4.66953,6.3642-6.15559c2.38641-1.48518,5.17047-2.22777,8.35297-2.22777
		c1.47278,0,3.03461,0.20592,4.68469,0.6169c1.65015,0.41275,3.16742,1.1696,4.55182,2.27322
		c1.38446,1.10275,2.53357,2.62538,3.44733,4.567c0.91284,1.9416,1.37018,4.44217,1.37018,7.50168v28.06514h-6.83929v-26.9615
		c0-1.82393-0.19885-3.37599-0.59644-4.65613c-0.39667-1.27925-0.97083-2.33119-1.72052-3.15491
		c-0.75061-0.82281-1.64838-1.42633-2.6922-1.80968c-1.04486-0.38155-2.21356-0.57321-3.50793-0.57321
		c-2.44263,0-4.67041,0.65524-6.68512,1.96391c-2.01562,1.30956-3.81726,3.11121-5.40582,5.40584V179.89743z"/>
	<path d="M986.1087,158.45143c0,2.91241-0.2879,5.49411-0.86475,7.74417c-0.57587,2.25095-1.33716,4.21486-2.28217,5.89081
		c-0.9458,1.67773-2.05389,3.08269-3.32428,4.21486c-1.27032,1.13306-2.58521,2.04501-3.9447,2.7359
		c-1.3595,0.69179-2.74042,1.19101-4.14447,1.50034c-1.40314,0.30846-2.72522,0.46358-3.96521,0.46358
		c-2.5719,0-4.80237-0.41989-6.69312-1.25786c-1.89172-0.83887-3.59082-2.08069-5.09656-3.729h-0.13013v24.403h-6.71008v-62.44099
		h5.16248l1.45667,4.76578h0.13196c0.38245-0.58836,0.87537-1.16158,1.47894-1.72142c0.6026-0.55806,1.41211-1.15356,2.42657-1.7865
		c1.01538-0.63205,2.23578-1.18385,3.66302-1.65456c1.42639-0.47069,2.97839-0.70604,4.65521-0.70604
		c2.35345,0,4.62585,0.3967,6.81793,1.19099c2.19128,0.7943,4.12573,2.0593,5.80261,3.79497
		c1.67682,1.73659,3.02295,3.96436,4.03741,6.6851C985.60144,151.2662,986.1087,154.56821,986.1087,158.45143z M978.96002,158.53969
		c0-2.44173-0.25946-4.63385-0.77734-6.57545c-0.51794-1.94162-1.29352-3.59618-2.32941-4.96368
		c-1.03589-1.36841-2.30798-2.41943-3.81641-3.15579c-1.50928-0.73457-3.2547-1.10275-5.23639-1.10275
		c-1.42108,0-2.71545,0.19167-3.88422,0.57321c-1.16864,0.38335-2.22687,0.8683-3.17267,1.45667
		c-0.94678,0.58926-1.76068,1.22131-2.44086,1.89705c-0.68109,0.67751-1.22845,1.28014-1.64209,1.80968v21.93185
		c1.44952,1.47092,3.09967,2.63249,4.94855,3.48563c1.84894,0.85403,3.83862,1.28015,5.96924,1.28015
		c1.30157,0,2.67706-0.24338,4.12659-0.72833c1.44958-0.48586,2.78857-1.35324,4.01697-2.60397
		c1.22668-1.24983,2.2403-2.94897,3.03992-5.09651C978.55975,164.60077,978.96002,161.86485,978.96002,158.53969z"/>
	<path d="M1021.45447,175.2636h-0.17651c-0.55896,0.70605-1.26501,1.40585-2.1181,2.09673
		c-0.85406,0.69179-1.83911,1.30957-2.95703,1.85336c-1.11792,0.54468-2.33832,0.97705-3.66217,1.30154
		c-1.32379,0.32361-2.7359,0.48586-4.23621,0.48586c-2.02991,0-3.8913-0.30222-5.5824-0.90485
		c-1.69196-0.60263-3.14771-1.48518-4.36816-2.64764c-1.22131-1.16159-2.16986-2.5817-2.84644-4.25854
		c-0.67755-1.67685-1.01538-3.57478-1.01538-5.6929c0-2.08781,0.37531-3.95544,1.12592-5.60376
		c0.74969-1.64743,1.80164-3.04524,3.15491-4.19167c1.35236-1.14822,2.97839-2.03078,4.87628-2.64766
		c1.89709-0.6187,3.99377-0.92712,6.28839-0.92712c2.17609,0.0294,4.19171,0.22107,6.0451,0.5741
		c1.85333,0.35303,3.50079,0.79341,4.94226,1.32294h0.17651v-2.91153c0-1.14821-0.07397-2.1627-0.22021-3.04526
		c-0.14801-0.88255-0.39758-1.66168-0.75061-2.3392c-0.76575-1.41208-1.98621-2.5808-3.66217-3.50792
		c-1.67773-0.92624-3.94287-1.3898-6.79651-1.3898c-2.1181,0-4.11145,0.19879-5.97906,0.5955
		c-1.86847,0.3976-3.729,0.94852-5.58148,1.65456v-5.73569c0.70605-0.35303,1.53601-0.68465,2.49255-0.9931
		c0.95569-0.30933,1.96393-0.5741,3.02295-0.79428c1.05908-0.2211,2.177-0.38957,3.3537-0.50725
		c1.17584-0.11769,2.35345-0.17651,3.53021-0.17651c4.23627,0,7.7005,0.74971,10.39185,2.25005
		c2.6922,1.50035,4.62579,3.48564,5.80341,5.95679c0.44043,0.94229,0.75684,1.97906,0.94861,3.11122
		c0.19067,1.13306,0.28699,2.37665,0.28699,3.729v27.97688h-5.73743L1021.45447,175.2636z M1021.10144,161.4958
		c-1.2597-0.35303-2.75281-0.69-4.48138-1.0145c-1.72766-0.32361-3.63007-0.50012-5.70984-0.52954
		c-2.89911,0-5.16962,0.6178-6.80902,1.85336c-1.64032,1.23557-2.45959,3.1335-2.45959,5.69202
		c0,1.2953,0.20416,2.42746,0.6142,3.39827c0.4101,0.97081,0.97437,1.77313,1.69202,2.40518
		c0.71674,0.63293,1.56635,1.10274,2.54694,1.41208c0.98065,0.30844,2.02808,0.46356,3.14154,0.46356
		c1.46381,0,2.82593-0.21306,4.08466-0.64008c1.25879-0.42612,2.37933-0.93336,3.3609-1.52261
		c0.98059-0.58838,1.81586-1.17586,2.50409-1.76511c0.68817-0.58838,1.19275-1.04391,1.5155-1.36752V161.4958z"/>
	<path d="M1047.79822,143.80109h0.13184c0.76489-0.97083,1.61096-1.87566,2.53809-2.71364
		c0.92627-0.83887,1.96387-1.57343,3.11035-2.20639c1.14819-0.63205,2.40515-1.12502,3.77356-1.47804
		c1.36743-0.35301,2.86072-0.52953,4.47864-0.52953c1.91235,0,3.70679,0.26387,5.38354,0.7934
		c1.67688,0.52953,3.13269,1.38356,4.36829,2.5603s2.2135,2.71362,2.93469,4.61066c0.72021,1.89793,1.08142,4.23001,1.08142,6.99445
		v28.06514h-6.84033v-26.9615c0-3.61935-0.69885-6.22243-2.0957-7.81104c-1.39795-1.58859-3.43494-2.38289-6.11108-2.38289
		c-2.35449,0-4.63391,0.65524-6.84021,1.96391c-2.20642,1.30956-4.10339,3.11121-5.69202,5.40584v29.78568h-6.84021v-41.9212
		h5.29529L1047.79822,143.80109z"/>
	<path d="M1083.5415,137.97623h6.84021l13.0199,32.87462h0.26831l13.36487-32.87462h6.83936l-25.95959,62.44099h-6.79553
		l8.95837-21.35776L1083.5415,137.97623z"/>
</g>
<g>
	<path d="M1129.51282,16.61359c0-2.11914,0.37891-4.07178,1.13477-5.85791c0.75781-1.78613,1.79102-3.33008,3.10352-4.63184
		c1.31152-1.30176,2.86523-2.3208,4.66211-3.05762c1.7959-0.73633,3.72363-1.10498,5.78223-1.10498s3.98535,0.36865,5.78223,1.10498
		c1.7959,0.73682,3.34961,1.75586,4.66211,3.05762c1.31152,1.30176,2.3457,2.8457,3.10352,4.63184
		c0.75586,1.78613,1.13477,3.73877,1.13477,5.85791s-0.37891,4.07178-1.13477,5.85791
		c-0.75781,1.78613-1.79199,3.33008-3.10352,4.63184c-1.3125,1.30176-2.86621,2.32129-4.66211,3.05762
		c-1.79688,0.73682-3.72363,1.10498-5.78223,1.10498s-3.98633-0.36816-5.78223-1.10498
		c-1.79688-0.73633-3.35059-1.75586-4.66211-3.05762c-1.3125-1.30176-2.3457-2.8457-3.10352-4.63184
		C1129.89172,20.68537,1129.51282,18.73273,1129.51282,16.61359z M1132.69153,16.61359c0,1.63477,0.27246,3.17383,0.81738,4.6167
		c0.54492,1.44336,1.32129,2.69434,2.33105,3.75391c1.00879,1.05957,2.21973,1.89746,3.63281,2.5127
		c1.41211,0.61572,2.98633,0.92334,4.72266,0.92334c1.73535,0,3.30957-0.30762,4.72266-0.92334
		c1.41211-0.61523,2.62305-1.45312,3.63281-2.5127c1.00879-1.05957,1.78613-2.31055,2.33105-3.75391
		c0.54492-1.44287,0.81738-2.98193,0.81738-4.6167s-0.27246-3.17334-0.81738-4.6167
		c-0.54492-1.44287-1.32227-2.69434-2.33105-3.75391c-1.00977-1.05957-2.2207-1.89697-3.63281-2.5127
		c-1.41309-0.61523-2.9873-0.92334-4.72266-0.92334c-1.73633,0-3.31055,0.30811-4.72266,0.92334
		c-1.41309,0.61572-2.62402,1.45312-3.63281,2.5127c-1.00977,1.05957-1.78613,2.31104-2.33105,3.75391
		C1132.96399,13.44025,1132.69153,14.97882,1132.69153,16.61359z M1146.34485,17.94562l4.11719,6.08496h-3.45117l-3.66309-5.75195
		h-1.54395v5.75195h-2.99707V9.01496h5.17676c0.78711,0,1.54883,0.07568,2.28516,0.22705
		c0.7373,0.15137,1.3877,0.40869,1.95312,0.77197c0.56445,0.36328,1.01855,0.83252,1.3623,1.40771
		c0.34277,0.5752,0.51465,1.28662,0.51465,2.13428c0,1.21094-0.33789,2.16992-1.01367,2.87598
		c-0.67676,0.70654-1.58984,1.1709-2.74023,1.39258V17.94562z M1141.80383,11.5882v4.11719h1.66504
		c1.16992,0,2.04395-0.1665,2.61816-0.49951c0.57617-0.33301,0.86328-0.88281,0.86328-1.6499
		c0-0.58496-0.19727-1.05957-0.58984-1.42285c-0.39453-0.36328-1.0957-0.54492-2.10449-0.54492
		C1144.25598,11.58821,1141.80383,11.58821,1141.80383,11.5882z"/>
</g>
</svg>
