<?xml version="1.0" encoding="utf-8"?>
<!-- Generator: Adobe Illustrator 21.0.2, SVG Export Plug-In . SVG Version: 6.00 Build 0)  -->
<svg version="1.1" id="Calque_1" xmlns="http://www.w3.org/2000/svg" xmlns:xlink="http://www.w3.org/1999/xlink" x="0px" y="0px"
	 viewBox="0 0 502 502" style="enable-background:new 0 0 502 502;" xml:space="preserve">
<style type="text/css">
	.st0{fill:#007ACC;}
</style>
<title>typescript-seeklogo.com</title>
<desc>Created with Sketch.</desc>
<g id="General-Symbols">
	<g id="TS" transform="translate(-777.000000, -651.000000)">
		<g id="typescript-seeklogo.com" transform="translate(777.000000, 651.000000)">
			<g id="Group">
				<path id="Combined-Shape" class="st0" d="M0,251V0h251h251v251v251H251H0V251z M111,252.7l-0.2,20.6h32.7h32.7v92.8v92.8h23.1
					h23.1v-92.8v-92.8h32.7h32.7v-20.2c0-11.2-0.2-20.5-0.6-20.7c-0.2-0.3-40-0.5-88.2-0.4l-87.7,0.2L111,252.7z M405.1,231.6
					c-8.7-2.2-29.2-2.8-38.1-1.1c-27.3,5.2-46.1,22.6-51.5,47.7c-1.5,7.2-1,24.9,0.9,32c2.3,8.5,7.9,18.7,13.8,25.1
					c10.2,11,21.4,17.9,47.3,29.1c22.6,9.8,30.6,14.5,34.5,20.1c3,4.4,3.7,6.9,3.7,12.7c0,6.5-1.9,10.8-6.5,15.1
					c-10.8,9.7-32.8,10.9-48.8,2.5c-5.6-2.9-14.8-11.8-19-18.2l-3-4.5l-14.4,8.4c-8,4.6-16.4,9.5-18.6,10.8
					c-2.3,1.4-4.4,2.6-4.6,2.9c-0.6,1,8.4,14.3,13.1,19.4c11.8,13.1,30.9,23,51.1,26.6c9.2,1.7,29.6,1.9,38.2,0.4
					c27.8-4.7,47.6-18.9,55.5-39.8c7.3-19.2,4.9-45-5.8-61.2c-9.6-14.5-24.9-24.7-60.9-40.2c-19.5-8.4-25.7-12.6-29.1-19.5
					c-1.6-3.2-2.2-5.5-2.2-9.4c-0.1-13.3,9.7-21.3,24.9-20.2c10.4,0.7,17.1,4.8,23.6,14.2c2.2,3.2,4.1,5.3,4.5,4.9
					c13.2-8.2,35.1-22.9,34.9-23.5c-0.6-2.2-7.4-11.2-12-16.1C427.5,240.4,417.8,234.8,405.1,231.6z"/>
			</g>
		</g>
	</g>
</g>
</svg>
